<svg width="620" height="185" viewBox="0 0 620 185" fill="none" xmlns="http://www.w3.org/2000/svg">
<g clip-path="url(#clip0_1241_626)">
<path d="M612.37 77.4936C612.139 81.3134 611.33 85.0175 609.943 88.6058C608.614 92.1362 606.62 95.3194 603.961 98.1553C601.36 100.933 598.037 103.133 593.992 104.753C589.946 106.374 585.149 107.184 579.601 107.184C574.573 107.184 569.805 106.46 565.297 105.014C560.847 103.567 556.888 101.425 553.42 98.5894C550.01 95.6956 547.323 92.1362 545.358 87.9113C543.393 83.6284 542.41 78.6801 542.41 73.0661C542.41 67.4521 543.393 62.5327 545.358 58.3077C547.323 54.0249 550.068 50.4655 553.593 47.6296C557.119 44.7358 561.193 42.5655 565.817 41.1186C570.44 39.6717 575.44 38.9482 580.815 38.9482C588.328 38.9482 594.743 40.0768 600.06 42.334C605.435 44.5333 609.741 47.5718 612.977 51.4494C616.271 55.3271 618.439 59.8125 619.479 64.9056H597.026C596.506 63.2851 595.465 61.925 593.905 60.8253C592.402 59.6678 590.553 58.7997 588.357 58.2209C586.16 57.5843 583.704 57.266 580.988 57.266C577.636 57.266 574.746 57.8447 572.319 59.0022C569.891 60.1019 568.013 61.8092 566.684 64.1243C565.412 66.4393 564.777 69.4199 564.777 73.0661C564.777 76.7701 565.499 79.8376 566.944 82.2684C568.447 84.6991 570.556 86.4933 573.272 87.6508C576.046 88.8083 579.312 89.3871 583.069 89.3871C586.71 89.3871 589.946 88.982 592.778 88.1717C595.61 87.3036 597.893 86.0014 599.627 84.2651C601.418 82.4709 602.516 80.2138 602.921 77.4936H612.37ZM584.456 83.4838V70.8089H619.999V105.621H604.481L601.187 80.7057L605.088 83.4838H584.456Z" fill="white"/>
<path d="M508.73 95.3795H499.54L522.687 40.5132H546.094L516.619 105.624H491.131L461.656 40.5132H485.583L508.73 95.3795Z" fill="white"/>
<path d="M378.412 107.195C371.823 107.195 366.044 106.095 361.073 103.896C356.161 101.696 352.317 98.6001 349.543 94.6066C346.827 90.6132 345.469 85.9831 345.469 80.7164C345.469 75.3918 346.827 70.7328 349.543 66.7394C352.317 62.7459 356.161 59.6496 361.073 57.4503C366.044 55.251 371.823 54.1514 378.412 54.1514C385 54.1514 390.751 55.251 395.663 57.4503C400.633 59.6496 404.477 62.7459 407.193 66.7394C409.967 70.7328 411.354 75.3918 411.354 80.7164C411.354 85.9831 409.967 90.6132 407.193 94.6066C404.477 98.6001 400.633 101.696 395.663 103.896C390.751 106.095 385 107.195 378.412 107.195ZM378.412 91.1341C380.723 91.1341 382.659 90.7289 384.22 89.9187C385.838 89.1084 387.052 87.922 387.861 86.3593C388.728 84.7967 389.161 82.9157 389.161 80.7164C389.161 78.4593 388.728 76.5493 387.861 74.9867C387.052 73.424 385.838 72.2376 384.22 71.4273C382.659 70.6171 380.723 70.2119 378.412 70.2119C376.158 70.2119 374.221 70.6171 372.603 71.4273C370.985 72.2376 369.742 73.424 368.875 74.9867C368.066 76.5493 367.662 78.4593 367.662 80.7164C367.662 82.9157 368.066 84.7967 368.875 86.3593C369.742 87.922 370.985 89.1084 372.603 89.9187C374.221 90.7289 376.158 91.1341 378.412 91.1341Z" fill="white"/>
<path d="M278.094 40.4028H300.113V105.628H278.094V40.4028ZM317.365 54.1471C322.22 54.1471 326.352 55.131 329.762 57.0988C333.172 59.0087 335.772 61.7289 337.564 65.2593C339.414 68.7319 340.338 72.8121 340.338 77.5001V105.628H318.319V80.6254C318.319 77.8473 317.538 75.7059 315.978 74.2011C314.475 72.6964 312.337 71.944 309.563 71.944C307.598 71.944 305.893 72.3491 304.448 73.1594C303.061 73.9117 301.992 75.0403 301.24 76.5451C300.489 77.992 300.113 79.7572 300.113 81.8407L293.612 78.5418C294.421 73.1015 295.981 68.5872 298.293 64.9989C300.605 61.3527 303.408 58.6325 306.702 56.8384C309.996 55.0442 313.551 54.1471 317.365 54.1471Z" fill="white"/>
<path d="M225.735 50.1495H248.101V105.624H225.735V50.1495ZM202.328 40.5132H271.508V60.4804H202.328V40.5132Z" fill="white"/>
<path d="M436.78 55.7036H410.184L414.106 64.7543C416.482 70.2374 417.708 76.1496 417.708 82.1255V105.622H439.728V72.4597C439.728 72.4597 437.447 58.5804 436.78 55.7036Z" fill="white"/>
<path d="M469.78 74.0734L460.448 54.3647C457.587 53.9649 450.65 53.8782 447.542 56.4003C445.044 57.9051 442.984 59.9597 441.361 62.5641C439.737 65.1106 438.426 68.0334 437.427 71.3323C436.491 74.5733 435.71 77.988 435.086 81.5763L439.3 86.4379C439.3 82.6759 439.925 79.7822 441.173 77.7565C442.485 75.7309 444.17 74.3418 446.231 73.5894C448.291 72.7792 450.507 72.374 452.88 72.374C457.054 72.5393 467.378 73.1106 469.78 74.0734Z" fill="white"/>
<path d="M164.743 10.1558C144.373 37.0515 112.597 52.8675 78.8633 52.9087H160.583L122.846 105.667H146.915L67.4805 184.849V146.468C67.4805 123.935 85.7476 105.668 108.281 105.667H39.2021L69.9531 52.9097H0L34.2998 0.150879H172.32L164.743 10.1558Z" fill="url(#paint0_radial_1241_626)"/>
<path d="M164.743 10.1558C144.373 37.0515 112.597 52.8675 78.8633 52.9087H160.583L122.846 105.667H146.915L67.4805 184.849V146.468C67.4805 123.935 85.7476 105.668 108.281 105.667H39.2021L69.9531 52.9097H0L34.2998 0.150879H172.32L164.743 10.1558Z" fill="url(#paint1_radial_1241_626)"/>
<g style="mix-blend-mode:lighten">
<path d="M164.745 10.1558C144.375 37.0517 112.598 52.8677 78.8643 52.9087H160.584L122.847 105.667H146.916L67.4814 184.849V146.468C67.4814 123.935 85.7495 105.667 108.283 105.667H39.2041L69.9541 52.9097H0.00195312L34.3008 0.150879H172.321L164.745 10.1558Z" fill="url(#paint2_linear_1241_626)"/>
</g>
</g>
<defs>
<radialGradient id="paint0_radial_1241_626" cx="0" cy="0" r="1" gradientUnits="userSpaceOnUse" gradientTransform="translate(130.335 67.811) rotate(60.008) scale(158.878 151.702)">
<stop offset="0.0469797" stop-color="#FFDE00"/>
<stop offset="0.694456" stop-color="#FF3305"/>
<stop offset="0.935453" stop-color="#801A03"/>
</radialGradient>
<radialGradient id="paint1_radial_1241_626" cx="0" cy="0" r="1" gradientUnits="userSpaceOnUse" gradientTransform="translate(25.2816 3.26229) rotate(42.3268) scale(222.092 561.399)">
<stop offset="0.0165581" stop-color="#0073FF"/>
<stop offset="0.0818329" stop-color="#018AE4"/>
<stop offset="0.227306" stop-color="#03E7B4"/>
<stop offset="0.282157" stop-color="#01FBA4"/>
<stop offset="0.331437" stop-color="#1DFFB0" stop-opacity="0.900833"/>
<stop offset="0.618985" stop-color="white" stop-opacity="0"/>
</radialGradient>
<linearGradient id="paint2_linear_1241_626" x1="182.105" y1="100.785" x2="47.7923" y2="71.669" gradientUnits="userSpaceOnUse">
<stop offset="0.242784" stop-color="white"/>
<stop offset="0.563942" stop-color="white" stop-opacity="0"/>
</linearGradient>
<clipPath id="clip0_1241_626">
<rect width="620" height="185" fill="white"/>
</clipPath>
</defs>
</svg>
